<svg xmlns="http://www.w3.org/2000/svg" xmlns:xlink="http://www.w3.org/1999/xlink" width="703" height="190" viewBox="0 0 703 190"><defs><clipPath id="b"><rect width="703" height="190"/></clipPath></defs><g id="a" clip-path="url(#b)"><g transform="translate(-6 42.503)"><path d="M96.758,91.445c-1.5-.258-3-.465-4.494-.826C80.022,87.726,72.015,80.236,69.277,67.994,65.868,52.756,67.469,37.931,76.044,24.5,80.8,17.062,86.892,10.967,95.208,7.4A39.641,39.641,0,0,1,107.14,4.458a9,9,0,0,0,1.136-.258h7.077c2.015.362,4.081.568,6.1,1.085,11.261,2.789,17.924,10.124,20.92,21.075.413,1.446.62,3,.981,4.546-3.616.258-7.128.517-10.331.775-1.085-2.841-1.911-5.527-3.1-8.058-2.944-6.1-8.058-9.195-14.618-9.814-12.759-1.24-22.16,4.339-29.03,14.722-4.959,7.542-7.128,16.013-7.438,25a38.889,38.889,0,0,0,1.6,13.792c2.944,8.885,10.176,14.153,19.474,14.722,15.032.93,23.813-9.5,27.222-19.061.31-.826.517-1.6.826-2.531,3.719.362,7.438.775,11.157,1.136.052.1.1.155.1.207-3.822,10.8-10.073,19.577-20.249,25.259a34.494,34.494,0,0,1-12.862,4.132,4.364,4.364,0,0,0-.878.258H96.758Zm240.35,0c-1.085-.258-2.221-.465-3.306-.775-8.42-2.118-12.139-9.5-12.242-16.168-.207-8.73,4.287-14.825,12.914-18.079,4.442-1.7,9.091-2.015,13.689-2.324l13.792-.93a1.43,1.43,0,0,0,.465-.052c5.579-1.343,4.494-.362,5.579-5.682a14.875,14.875,0,0,0,.207-3.048c0-2.893-1.7-4.649-3.977-6.044a18.056,18.056,0,0,0-9.246-2.273,17.479,17.479,0,0,0-13.534,5.475c-1.55,1.653-2.583,3.771-3.977,5.889-3.1-.362-6.509-.723-10.176-1.136.362-.878.672-1.653,1.033-2.428,4.081-8.213,10.124-14,19.371-15.755a35.66,35.66,0,0,1,19.319,1.24,21.642,21.642,0,0,1,6.818,4.029,12.457,12.457,0,0,1,4.494,9.453c.155,4.442-.775,8.781-1.756,13.12-1.55,7.128-3,14.257-4.494,21.333a22.873,22.873,0,0,0,.62,10.9c.155.62.31,1.291.465,2.066h-5.63c-1.343,0-2.686-.052-3.977,0a.975.975,0,0,1-1.188-.93c-.362-2.17-.775-4.391-1.136-6.663-.723.62-1.5,1.188-2.221,1.808a33.962,33.962,0,0,1-11.726,6.3c-.93.258-1.911.413-2.841.62C342.119,91.445,339.587,91.445,337.108,91.445Zm28.41-32.129a28.107,28.107,0,0,1-3.771,1.033c-4.7.62-9.4,1.033-14.1,1.756a56.207,56.207,0,0,0-9.711,2.169,10.062,10.062,0,0,0-6.3,10.176,9.807,9.807,0,0,0,8.058,8.885c7.077,1.291,12.965-1.033,18.079-5.734C363.091,72.746,363.969,66.031,365.518,59.316ZM6,62.26c.31-1.86.517-3.719.981-5.527C9,48.365,12.509,40.772,19.069,35.038c8.265-7.232,17.924-9.659,28.41-6.2C55.95,31.629,60.806,37.982,62.2,46.867a49.345,49.345,0,0,1-.362,15.083h-45.2c-.155,6.767,0,13.275,5.527,18.183C26.3,83.8,31,84.007,35.908,82.2A22.717,22.717,0,0,0,48.46,70.473c.155-.362.62-.878.93-.826,3.2.31,6.354.672,9.814,1.085a39.44,39.44,0,0,1-1.7,3.874c-4.339,7.335-10.021,13.12-18.338,15.755-1.653.517-3.409.775-5.114,1.136H26.507a2.557,2.557,0,0,0-.672-.207,21.539,21.539,0,0,1-10.848-4.649C10.856,83.542,8.634,79.2,7.24,74.4c-.568-1.911-.826-3.926-1.24-5.94v-6.2Zm46.748-8.213c.207-4.442-.1-8.73-2.531-12.6a11.35,11.35,0,0,0-7.852-5.475,17.3,17.3,0,0,0-10.693,1.188A23.085,23.085,0,0,0,19.12,52.136c-.155.62-.31,1.24-.517,1.963,11.467-.052,22.78-.052,34.144-.052Zm473.624,37.4a44.429,44.429,0,0,1-4.546-.981c-8.833-2.634-14.36-8.73-15.7-17.666-2.066-13.947,1.291-26.6,11.364-36.985,5.217-5.32,11.777-7.852,19.164-8.316a27.165,27.165,0,0,1,13.844,2.376,21.464,21.464,0,0,1,11.984,15.806c2.634,13.74-.31,26.241-9.866,36.778-4.7,5.165-10.9,7.593-17.666,8.73a5.447,5.447,0,0,0-.981.258ZM515.679,65.721c.1,1.7.155,3.2.362,4.7.413,3.306,1.343,6.509,3.771,8.936a16.072,16.072,0,0,0,17.873,2.789c5.424-2.686,8.885-7.18,11.571-12.4a35.683,35.683,0,0,0,3.667-20.507c-1.033-9.608-9.091-15.342-18.492-13.172-5.682,1.343-9.866,4.8-13.017,9.556C517.28,51.774,516.2,58.8,515.679,65.721ZM672.4,91.445c-1.653-.31-3.306-.568-4.907-.981-4.081-1.085-7.955-2.686-10.951-5.837-4.029-4.184-5.011-9.4-5.062-15.083q5.269-.387,10.383-.775c.258,1.963.517,3.874.826,5.734.517,3.668,3.048,5.837,6.044,7.283a20.523,20.523,0,0,0,15.445.93c3.564-1.085,6.2-3.409,6.87-7.283a6.7,6.7,0,0,0-2.634-6.87,66.315,66.315,0,0,0-8.833-4.856c-3.306-1.6-6.715-3.048-10.073-4.442-10.383-4.339-12.656-17.614-4.287-25.673A21.533,21.533,0,0,1,678.909,27.6a31.644,31.644,0,0,1,16.323,2.479,16.917,16.917,0,0,1,10.331,14.308c.052.258.155.517.207.775v1.86c-3.254.31-6.508.568-9.815.878a4.227,4.227,0,0,1-.052-.723c-.413-4.442-2.944-9.143-8.471-10.693a21.813,21.813,0,0,0-9.659-.465,10.406,10.406,0,0,0-6.354,3.667,6.658,6.658,0,0,0,1.859,9.918c3.823,1.963,7.852,3.564,11.726,5.424a91.345,91.345,0,0,1,9.453,4.959,15.082,15.082,0,0,1,5.682,19.732,19.974,19.974,0,0,1-13.9,10.8c-1.7.413-3.461.672-5.166.981-2.841-.052-5.785-.052-8.678-.052Zm-384.932,0a38.054,38.054,0,0,1-4.184-1.033c-8.316-2.686-12.759-8.73-14.308-17.046-1.55-8.471,0-16.581,3.1-24.484,1.653-4.236,3.513-8.368,6.715-11.777a29.884,29.884,0,0,1,23.3-9.711c5.785.1,10.9,1.911,14.98,6.2,3.771,3.926,5.114,8.781,5.165,14.205-3.358.413-6.715.775-10.124,1.188-.155-1.136-.207-2.221-.413-3.306A11.324,11.324,0,0,0,299.4,36.019c-7.645.465-12.862,4.391-15.858,11.209A48.956,48.956,0,0,0,279,69.6a20.836,20.836,0,0,0,1.033,5.63c3.048,8.833,11.312,10.124,17.666,6.715,4.391-2.324,7.232-6.044,9.195-10.486.517-1.136.981-2.273,1.55-3.564,3.306.362,6.664.775,10.073,1.188-4.081,12.191-11.416,20.455-23.4,22.108-.207.052-.413.155-.672.207C292.168,91.445,289.844,91.445,287.468,91.445ZM413.609,5.8H424.3c.827,0,.672.568.723,1.085.207,4.442.413,8.833.62,13.275.413,8.781.93,17.614,1.24,26.4.362,8.936.517,17.924.826,26.861a8.389,8.389,0,0,0,.052.93,9.135,9.135,0,0,0,.723-1.188C440,51.051,451.679,28.891,463.3,6.783a1.569,1.569,0,0,1,1.6-1.033c3.048.052,6.1,0,9.194,0,.362,0,.672.052,1.24.052,1.24,23.09,2.428,46.128,3.667,69.269a5.638,5.638,0,0,0,.413-.775C484.17,62.105,490.11,50.483,496,38.809c4.649-9.246,9.35-18.544,14-27.79.775-1.55,1.55-3.1,2.376-4.6.155-.31.516-.672.826-.672,3.667-.052,7.335-.052,11.261-.052-.465.93-.775,1.653-1.188,2.428-6.715,13.12-13.43,26.189-20.094,39.309q-10.615,20.688-21.127,41.376a2.264,2.264,0,0,1-2.428,1.446c-3.151-.1-6.25-.052-9.4,0-.826,0-1.136-.155-1.188-1.085-.258-6.715-.62-13.43-.93-20.2-.465-9.814-.878-19.629-1.395-29.443-.31-5.372-.775-10.8-1.188-16.168,0-.052-.052-.1-.207-.31-.362.826-.672,1.55-1.033,2.273-4.6,8.988-9.091,18.028-13.792,26.964-6.405,12.294-12.914,24.484-19.371,36.778a1.85,1.85,0,0,1-1.963,1.188c-3-.052-5.94-.052-8.936,0-.878,0-1.188-.207-1.24-1.136-.62-10.383-1.343-20.765-2.015-31.2-.517-7.955-.981-15.961-1.5-23.916-.568-8.936-1.188-17.873-1.808-26.861a5.235,5.235,0,0,1-.052-1.343Z" fill="#173e58"/><path d="M752.938,60.353c-3.254,2.738-6.2,5.579-9.5,7.955a10.992,10.992,0,0,0-4.494,7.748c-.878,5.217-2.169,10.383-3.254,15.651H725.509c.878-4.339,1.756-8.575,2.634-12.862q6.044-29.6,12.139-59.2c.775-3.822,1.6-7.645,2.324-11.519.1-.568.31-.878.982-.878h9.3a2.273,2.273,0,0,1,.517.1q-5.424,25.879-10.9,51.707c.052.052.155.1.207.155,1.24-1.136,2.428-2.324,3.667-3.461l26.034-24.639a2.3,2.3,0,0,1,1.188-.672c4.287-.052,8.626-.052,13.12.207-.258.207-.568.465-.826.672-8.058,7.077-16.065,14.1-24.123,21.179a1.318,1.318,0,0,0-.413,1.756c4.959,12.036,9.866,24.123,14.773,36.158.155.362.258.723.465,1.24-.517.052-.93.1-1.292.1-2.944,0-5.889-.052-8.833.052a1.5,1.5,0,0,1-1.653-1.188q-5.579-14.489-11.157-28.875a7.026,7.026,0,0,1-.723-1.395ZM320.689,91.707H310.1q.852-4.184,1.7-8.213,5.5-26.034,11-52.017c.155-.775.465-1.085,1.291-1.085,2.738.052,5.475,0,8.368,0-.62,3.513-1.24,6.87-1.911,10.538.878-.826,1.55-1.446,2.221-2.066,3.874-3.564,8.007-6.818,13.017-8.678A19.543,19.543,0,0,1,360,30.031a13.985,13.985,0,0,1,8.936,15.238C367.9,52.5,366.3,59.63,364.8,66.81c-1.653,7.955-3.513,15.858-5.269,23.813-.155.723-.413,1.136-1.291,1.136-3.151-.052-6.25,0-9.556,0,.465-2.17.878-4.132,1.343-6.147q3.8-17.046,7.542-34.144a39.433,39.433,0,0,0,.878-6.509c.155-4.442-2.324-7.077-6.767-7.387-7.9-.568-14.05,2.789-18.751,8.936-3.358,4.391-5.165,9.556-6.3,14.928-1.911,9.246-3.616,18.6-5.424,27.894-.207.775-.362,1.55-.517,2.376ZM534.282,7.252c-.93,4.546-1.86,8.936-2.789,13.275q-6.2,29.521-12.346,59.042c-.775,3.771-1.55,7.593-2.428,11.364-.052.31-.517.826-.826.826-3,.052-6.044,0-9.04,0-.1,0-.207-.1-.465-.155.465-2.221.878-4.442,1.343-6.612q6.044-28.9,12.139-57.854c1.343-6.3,2.634-12.655,3.978-18.957.052-.362.516-.878.775-.878,3.2-.1,6.3-.052,9.659-.052ZM266.4,91.759c5.94-28.255,11.777-56.3,17.666-84.456h10.176c-.568,2.789-1.136,5.475-1.7,8.161q-5.269,25.1-10.486,50.157c-1.756,8.316-3.461,16.633-5.217,24.9-.155.826-.465,1.24-1.446,1.188-2.893,0-5.837.052-8.988.052Zm423.674,0c4.236-20.559,8.368-40.911,12.552-61.314h9.4c-.878,4.029-1.7,7.955-2.583,11.932.052.052.1.052.155.1l.775-1.085a44.361,44.361,0,0,1,8.885-9.5c4.959-3.822,10.8-4.081,15.91-.568a3.367,3.367,0,0,0,.413.362c-1.395,3.048-2.789,6.1-4.236,9.246-.362-.155-.672-.31-.981-.465-3.616-2.066-7.18-1.756-10.744.155-5.32,2.841-8.575,7.438-10.744,12.914a106.845,106.845,0,0,0-4.959,18.337c-1.291,6.3-2.583,12.655-3.926,18.957-.052.362-.465.878-.775.878-2.944.052-5.94.052-9.143.052Zm-401.617-.052c4.184-20.455,8.368-40.807,12.552-61.211H311.6c-.465,2.221-.878,4.391-1.343,6.509q-5.579,26.5-11.209,52.946c-.413,2.066.1,1.86-2.273,1.86h-6.922A11.787,11.787,0,0,0,288.457,91.707ZM393.833,30.393c-.568,2.841-1.136,5.527-1.7,8.265q-5.5,25.957-10.951,51.862c-.207.93-.517,1.291-1.5,1.24-2.944-.052-5.837-.052-8.936-.052.465-2.428.93-4.752,1.395-7.025q5.5-26.654,10.951-53.308c.1-.362.465-.981.671-.981h10.073ZM305.709,7.3H316.3c-.775,3.926-1.55,7.8-2.324,11.674H303.385c.775-3.926,1.55-7.748,2.324-11.674Zm90.5,11.674H385.62c.568-3,1.136-5.94,1.756-8.885C387.944,7.2,388,7.2,390.94,7.2h7.645c-.826,4.029-1.6,7.852-2.376,11.777Z" transform="translate(-125.891 -1.45)" fill="#173e58"/></g></g></svg>